<svg width="183" height="224" viewBox="0 0 183 224" fill="none" xmlns="http://www.w3.org/2000/svg">
<path d="M9.48438 193.695L14.3413 177.383H19.0708L11.8916 198H8.77637L9.48438 193.695ZM5.00977 177.383L9.85254 193.695L10.5889 198H7.44531L0.308594 177.383H5.00977ZM25.0464 182.679V198H20.9541V182.679H25.0464ZM20.6992 178.686C20.6992 178.091 20.9069 177.6 21.3223 177.213C21.7376 176.826 22.2946 176.632 22.9932 176.632C23.6823 176.632 24.2345 176.826 24.6499 177.213C25.0747 177.6 25.2871 178.091 25.2871 178.686C25.2871 179.28 25.0747 179.771 24.6499 180.158C24.2345 180.545 23.6823 180.739 22.9932 180.739C22.2946 180.739 21.7376 180.545 21.3223 180.158C20.9069 179.771 20.6992 179.28 20.6992 178.686ZM36.7002 193.766C36.7002 193.473 36.6152 193.209 36.4453 192.973C36.2754 192.737 35.9591 192.52 35.4966 192.322C35.0435 192.114 34.3874 191.925 33.5283 191.755C32.7542 191.585 32.0321 191.373 31.3618 191.118C30.701 190.854 30.1252 190.538 29.6343 190.169C29.1528 189.801 28.7752 189.367 28.5015 188.867C28.2277 188.357 28.0908 187.776 28.0908 187.125C28.0908 186.483 28.2277 185.879 28.5015 185.312C28.7847 184.746 29.1859 184.246 29.7051 183.812C30.2337 183.368 30.8757 183.023 31.6309 182.778C32.3955 182.523 33.2546 182.396 34.208 182.396C35.5391 182.396 36.6813 182.608 37.6348 183.033C38.5977 183.458 39.334 184.043 39.8438 184.789C40.363 185.525 40.6226 186.365 40.6226 187.309H36.5444C36.5444 186.913 36.4595 186.559 36.2896 186.247C36.1291 185.926 35.8742 185.676 35.5249 185.497C35.1851 185.308 34.7414 185.213 34.1938 185.213C33.7407 185.213 33.349 185.294 33.0186 185.454C32.6882 185.605 32.4333 185.813 32.2539 186.077C32.084 186.332 31.999 186.615 31.999 186.927C31.999 187.163 32.0462 187.375 32.1406 187.564C32.2445 187.743 32.4097 187.909 32.6362 188.06C32.8628 188.211 33.1554 188.352 33.5142 188.484C33.8823 188.607 34.3354 188.72 34.8735 188.824C35.978 189.051 36.9645 189.348 37.833 189.716C38.7015 190.075 39.3906 190.566 39.9004 191.189C40.4102 191.803 40.665 192.61 40.665 193.61C40.665 194.29 40.514 194.913 40.2119 195.479C39.9098 196.046 39.4756 196.542 38.9092 196.966C38.3428 197.382 37.6631 197.707 36.8701 197.943C36.0866 198.17 35.2039 198.283 34.2222 198.283C32.7967 198.283 31.5884 198.028 30.5972 197.519C29.6154 197.009 28.8696 196.362 28.3599 195.579C27.8595 194.786 27.6094 193.974 27.6094 193.143H31.4751C31.494 193.7 31.6356 194.148 31.8999 194.488C32.1737 194.828 32.5182 195.074 32.9336 195.225C33.3584 195.376 33.8162 195.451 34.3071 195.451C34.8358 195.451 35.2747 195.38 35.624 195.239C35.9733 195.088 36.2376 194.889 36.417 194.644C36.6058 194.389 36.7002 194.097 36.7002 193.766ZM51.5825 194.545V187.72C51.5825 187.229 51.5023 186.809 51.3418 186.459C51.1813 186.101 50.9312 185.822 50.5913 185.624C50.2609 185.426 49.8314 185.327 49.3027 185.327C48.8496 185.327 48.4578 185.407 48.1274 185.567C47.797 185.718 47.5422 185.94 47.3628 186.233C47.1834 186.516 47.0938 186.851 47.0938 187.238H43.0156C43.0156 186.587 43.1667 185.969 43.4688 185.383C43.7708 184.798 44.2098 184.284 44.7856 183.84C45.3615 183.387 46.0459 183.033 46.8389 182.778C47.6413 182.523 48.5381 182.396 49.5293 182.396C50.7188 182.396 51.776 182.594 52.7012 182.99C53.6263 183.387 54.3532 183.981 54.8818 184.774C55.4199 185.567 55.689 186.559 55.689 187.748V194.304C55.689 195.144 55.7409 195.833 55.8447 196.372C55.9486 196.9 56.0996 197.363 56.2979 197.759V198H52.1772C51.979 197.585 51.828 197.065 51.7241 196.442C51.6297 195.81 51.5825 195.177 51.5825 194.545ZM52.1206 188.668L52.1489 190.977H49.8691C49.3311 190.977 48.8638 191.038 48.4673 191.161C48.0708 191.283 47.7451 191.458 47.4902 191.685C47.2354 191.902 47.0465 192.157 46.9238 192.449C46.8105 192.742 46.7539 193.063 46.7539 193.412C46.7539 193.761 46.8341 194.078 46.9946 194.361C47.1551 194.635 47.3864 194.852 47.6885 195.012C47.9906 195.163 48.3446 195.239 48.7505 195.239C49.3641 195.239 49.8975 195.116 50.3506 194.871C50.8037 194.625 51.153 194.323 51.3984 193.964C51.6533 193.606 51.7855 193.266 51.7949 192.945L52.8711 194.672C52.7201 195.059 52.5124 195.461 52.248 195.876C51.9932 196.291 51.6675 196.683 51.271 197.051C50.8745 197.41 50.3978 197.707 49.8408 197.943C49.2839 198.17 48.623 198.283 47.8584 198.283C46.8861 198.283 46.0034 198.09 45.2104 197.703C44.4269 197.306 43.8039 196.763 43.3413 196.074C42.8882 195.376 42.6616 194.583 42.6616 193.695C42.6616 192.893 42.8127 192.18 43.1147 191.557C43.4168 190.934 43.8605 190.41 44.4458 189.985C45.0405 189.551 45.7816 189.225 46.6689 189.008C47.5563 188.782 48.5853 188.668 49.7559 188.668H52.1206ZM66.3374 182.679V185.567H57.4165V182.679H66.3374ZM59.6255 178.898H63.7036V193.384C63.7036 193.827 63.7603 194.167 63.8735 194.403C63.9963 194.639 64.1756 194.805 64.4116 194.899C64.6476 194.984 64.945 195.026 65.3037 195.026C65.5586 195.026 65.7852 195.017 65.9834 194.998C66.1911 194.97 66.3657 194.941 66.5073 194.913L66.5215 197.915C66.1722 198.028 65.7946 198.118 65.3887 198.184C64.9827 198.25 64.5343 198.283 64.0435 198.283C63.1466 198.283 62.3631 198.137 61.6929 197.844C61.0321 197.542 60.5223 197.061 60.1636 196.4C59.8049 195.739 59.6255 194.871 59.6255 193.794V178.898ZM67.6401 190.495V190.198C67.6401 189.074 67.8006 188.041 68.1216 187.097C68.4425 186.143 68.9098 185.317 69.5234 184.619C70.137 183.92 70.8923 183.377 71.7891 182.99C72.6859 182.594 73.7148 182.396 74.876 182.396C76.0371 182.396 77.0708 182.594 77.9771 182.99C78.8833 183.377 79.6432 183.92 80.2568 184.619C80.8799 185.317 81.3519 186.143 81.6729 187.097C81.9938 188.041 82.1543 189.074 82.1543 190.198V190.495C82.1543 191.609 81.9938 192.643 81.6729 193.596C81.3519 194.54 80.8799 195.366 80.2568 196.074C79.6432 196.773 78.888 197.316 77.9912 197.703C77.0944 198.09 76.0654 198.283 74.9043 198.283C73.7432 198.283 72.7095 198.09 71.8032 197.703C70.9064 197.316 70.1465 196.773 69.5234 196.074C68.9098 195.366 68.4425 194.54 68.1216 193.596C67.8006 192.643 67.6401 191.609 67.6401 190.495ZM71.7183 190.198V190.495C71.7183 191.137 71.7749 191.736 71.8882 192.293C72.0015 192.85 72.1808 193.341 72.4263 193.766C72.6812 194.181 73.0116 194.507 73.4175 194.743C73.8234 194.979 74.319 195.097 74.9043 195.097C75.4707 195.097 75.9569 194.979 76.3628 194.743C76.7687 194.507 77.0944 194.181 77.3398 193.766C77.5853 193.341 77.7646 192.85 77.8779 192.293C78.0007 191.736 78.062 191.137 78.062 190.495V190.198C78.062 189.575 78.0007 188.989 77.8779 188.442C77.7646 187.885 77.5806 187.394 77.3257 186.969C77.0802 186.535 76.7546 186.195 76.3486 185.95C75.9427 185.704 75.4518 185.582 74.876 185.582C74.3001 185.582 73.8092 185.704 73.4033 185.95C73.0068 186.195 72.6812 186.535 72.4263 186.969C72.1808 187.394 72.0015 187.885 71.8882 188.442C71.7749 188.989 71.7183 189.575 71.7183 190.198ZM88.7388 186.021V198H84.6606V182.679H88.498L88.7388 186.021ZM93.355 182.58L93.2842 186.36C93.0859 186.332 92.8452 186.308 92.562 186.29C92.2882 186.261 92.0381 186.247 91.8115 186.247C91.2357 186.247 90.7354 186.323 90.3105 186.474C89.8952 186.615 89.5459 186.828 89.2627 187.111C88.9889 187.394 88.7812 187.739 88.6396 188.145C88.5075 188.55 88.432 189.013 88.4131 189.532L87.5918 189.277C87.5918 188.286 87.6909 187.375 87.8892 186.544C88.0874 185.704 88.3753 184.973 88.7529 184.35C89.14 183.727 89.612 183.245 90.1689 182.905C90.7259 182.565 91.3631 182.396 92.0806 182.396C92.3071 182.396 92.5384 182.414 92.7744 182.452C93.0104 182.48 93.2039 182.523 93.355 182.58ZM102.757 177.383H110.446C112.023 177.383 113.377 177.619 114.51 178.091C115.653 178.563 116.53 179.261 117.144 180.187C117.758 181.112 118.064 182.249 118.064 183.599C118.064 184.704 117.876 185.652 117.498 186.445C117.13 187.229 116.606 187.885 115.926 188.414C115.256 188.933 114.468 189.348 113.562 189.66L112.216 190.368H105.533L105.504 187.054H110.475C111.22 187.054 111.839 186.922 112.33 186.658C112.82 186.393 113.189 186.025 113.434 185.553C113.689 185.081 113.816 184.534 113.816 183.911C113.816 183.25 113.694 182.679 113.448 182.197C113.203 181.716 112.83 181.348 112.33 181.093C111.829 180.838 111.201 180.71 110.446 180.71H107.005V198H102.757V177.383ZM114.284 198L109.583 188.81L114.071 188.782L118.829 197.802V198H114.284ZM128.132 198.283C126.943 198.283 125.876 198.094 124.932 197.717C123.988 197.33 123.186 196.796 122.525 196.117C121.874 195.437 121.373 194.649 121.024 193.752C120.675 192.846 120.5 191.883 120.5 190.863V190.297C120.5 189.136 120.665 188.074 120.996 187.111C121.326 186.148 121.798 185.312 122.412 184.604C123.035 183.896 123.79 183.354 124.677 182.976C125.565 182.589 126.565 182.396 127.679 182.396C128.765 182.396 129.728 182.575 130.568 182.934C131.408 183.292 132.111 183.802 132.678 184.463C133.254 185.124 133.688 185.917 133.98 186.842C134.273 187.757 134.419 188.777 134.419 189.9V191.6H122.242V188.881H130.412V188.569C130.412 188.003 130.308 187.498 130.101 187.054C129.902 186.601 129.6 186.242 129.194 185.978C128.788 185.714 128.269 185.582 127.637 185.582C127.099 185.582 126.636 185.7 126.249 185.936C125.862 186.172 125.546 186.502 125.3 186.927C125.064 187.352 124.885 187.852 124.762 188.428C124.649 188.994 124.592 189.617 124.592 190.297V190.863C124.592 191.477 124.677 192.043 124.847 192.562C125.027 193.082 125.277 193.53 125.598 193.908C125.928 194.285 126.325 194.578 126.787 194.786C127.259 194.993 127.792 195.097 128.387 195.097C129.124 195.097 129.808 194.956 130.44 194.672C131.082 194.38 131.635 193.941 132.097 193.355L134.08 195.508C133.759 195.97 133.32 196.414 132.763 196.839C132.215 197.264 131.554 197.613 130.78 197.887C130.006 198.151 129.124 198.283 128.132 198.283ZM145.011 194.545V187.72C145.011 187.229 144.931 186.809 144.771 186.459C144.61 186.101 144.36 185.822 144.02 185.624C143.69 185.426 143.26 185.327 142.731 185.327C142.278 185.327 141.887 185.407 141.556 185.567C141.226 185.718 140.971 185.94 140.792 186.233C140.612 186.516 140.522 186.851 140.522 187.238H136.444C136.444 186.587 136.595 185.969 136.897 185.383C137.2 184.798 137.639 184.284 138.214 183.84C138.79 183.387 139.475 183.033 140.268 182.778C141.07 182.523 141.967 182.396 142.958 182.396C144.147 182.396 145.205 182.594 146.13 182.99C147.055 183.387 147.782 183.981 148.311 184.774C148.849 185.567 149.118 186.559 149.118 187.748V194.304C149.118 195.144 149.17 195.833 149.273 196.372C149.377 196.9 149.528 197.363 149.727 197.759V198H145.606C145.408 197.585 145.257 197.065 145.153 196.442C145.058 195.81 145.011 195.177 145.011 194.545ZM145.549 188.668L145.578 190.977H143.298C142.76 190.977 142.292 191.038 141.896 191.161C141.5 191.283 141.174 191.458 140.919 191.685C140.664 191.902 140.475 192.157 140.353 192.449C140.239 192.742 140.183 193.063 140.183 193.412C140.183 193.761 140.263 194.078 140.423 194.361C140.584 194.635 140.815 194.852 141.117 195.012C141.419 195.163 141.773 195.239 142.179 195.239C142.793 195.239 143.326 195.116 143.779 194.871C144.232 194.625 144.582 194.323 144.827 193.964C145.082 193.606 145.214 193.266 145.224 192.945L146.3 194.672C146.149 195.059 145.941 195.461 145.677 195.876C145.422 196.291 145.096 196.683 144.7 197.051C144.303 197.41 143.826 197.707 143.27 197.943C142.713 198.17 142.052 198.283 141.287 198.283C140.315 198.283 139.432 198.09 138.639 197.703C137.856 197.306 137.233 196.763 136.77 196.074C136.317 195.376 136.09 194.583 136.09 193.695C136.09 192.893 136.241 192.18 136.543 191.557C136.846 190.934 137.289 190.41 137.875 189.985C138.469 189.551 139.21 189.225 140.098 189.008C140.985 188.782 142.014 188.668 143.185 188.668H145.549ZM156.566 176.25V198H152.474V176.25H156.566ZM167.441 182.679V185.567H158.52V182.679H167.441ZM160.729 178.898H164.807V193.384C164.807 193.827 164.864 194.167 164.977 194.403C165.1 194.639 165.279 194.805 165.515 194.899C165.751 194.984 166.049 195.026 166.407 195.026C166.662 195.026 166.889 195.017 167.087 194.998C167.295 194.97 167.469 194.941 167.611 194.913L167.625 197.915C167.276 198.028 166.898 198.118 166.492 198.184C166.086 198.25 165.638 198.283 165.147 198.283C164.25 198.283 163.467 198.137 162.796 197.844C162.136 197.542 161.626 197.061 161.267 196.4C160.908 195.739 160.729 194.871 160.729 193.794V178.898ZM174.309 196.272L178.373 182.679H182.748L176.588 200.308C176.456 200.695 176.277 201.111 176.05 201.554C175.833 201.998 175.536 202.418 175.158 202.814C174.79 203.22 174.323 203.551 173.756 203.806C173.199 204.061 172.515 204.188 171.703 204.188C171.316 204.188 171 204.164 170.754 204.117C170.509 204.07 170.216 204.004 169.876 203.919V200.931C169.98 200.931 170.089 200.931 170.202 200.931C170.315 200.941 170.424 200.945 170.528 200.945C171.066 200.945 171.505 200.884 171.845 200.761C172.185 200.639 172.458 200.45 172.666 200.195C172.874 199.949 173.039 199.628 173.162 199.232L174.309 196.272ZM172.609 182.679L175.937 193.78L176.518 198.099L173.742 198.396L168.234 182.679H172.609Z" fill="#969696"/>
<path d="M90.4971 95.6361V38.5133M144.942 142.278H38.345L54.3918 127.604M144.942 142.278L165 160.62H18M144.942 142.278V95.6361L115.14 71.5292M54.3918 127.604L70.4386 112.93H115.14V71.5292M54.3918 127.604V71.5292L90.4971 38.5133M90.4971 38.5133V11L115.14 51.8769V71.5292" stroke="#FFC451" stroke-width="6"/>
<path d="M82.7612 30.3903L43.5039 68.3848V124.197" stroke="white" stroke-width="3"/>
<path d="M124.309 65.7645L156.116 91.1816V138.347" stroke="white" stroke-width="3"/>
</svg>
