<svg width="194" height="90" viewBox="0 0 194 90" fill="none" xmlns="http://www.w3.org/2000/svg">
<rect width="194" height="90" fill="black"/>
<path d="M34.2676 66.1797L36.2979 70.106L38.3335 66.1797H39.5098L36.8135 71.0781V74H35.7769V71.0781L33.0806 66.1797H34.2676ZM46.374 69.8428V70.3369C46.374 70.9242 46.3006 71.4505 46.1538 71.916C46.007 72.3815 45.7957 72.7772 45.52 73.103C45.2443 73.4289 44.9131 73.6777 44.5264 73.8496C44.1432 74.0215 43.7135 74.1074 43.2373 74.1074C42.7754 74.1074 42.3511 74.0215 41.9644 73.8496C41.5812 73.6777 41.2482 73.4289 40.9653 73.103C40.686 72.7772 40.4694 72.3815 40.3154 71.916C40.1615 71.4505 40.0845 70.9242 40.0845 70.3369V69.8428C40.0845 69.2555 40.1597 68.731 40.3101 68.269C40.464 67.8035 40.6807 67.4079 40.96 67.082C41.2393 66.7526 41.5705 66.502 41.9536 66.3301C42.3403 66.1582 42.7646 66.0723 43.2266 66.0723C43.7028 66.0723 44.1325 66.1582 44.5156 66.3301C44.9023 66.502 45.2336 66.7526 45.5093 67.082C45.7886 67.4079 46.0016 67.8035 46.1484 68.269C46.2988 68.731 46.374 69.2555 46.374 69.8428ZM45.3481 70.3369V69.832C45.3481 69.3665 45.2998 68.9548 45.2031 68.5967C45.11 68.2386 44.9722 67.9378 44.7896 67.6943C44.6069 67.4508 44.3831 67.2664 44.1182 67.1411C43.8568 67.0158 43.5596 66.9531 43.2266 66.9531C42.9043 66.9531 42.6125 67.0158 42.3511 67.1411C42.0933 67.2664 41.8713 67.4508 41.6851 67.6943C41.5024 67.9378 41.361 68.2386 41.2607 68.5967C41.1605 68.9548 41.1104 69.3665 41.1104 69.832V70.3369C41.1104 70.806 41.1605 71.2214 41.2607 71.583C41.361 71.9411 41.5042 72.2437 41.6904 72.4907C41.8802 72.7342 42.104 72.9186 42.3618 73.0439C42.6232 73.1693 42.915 73.2319 43.2373 73.2319C43.5739 73.2319 43.8729 73.1693 44.1343 73.0439C44.3957 72.9186 44.6159 72.7342 44.7949 72.4907C44.9775 72.2437 45.1154 71.9411 45.2085 71.583C45.3016 71.2214 45.3481 70.806 45.3481 70.3369ZM52.4004 66.1797H53.4316V71.4702C53.4316 72.0575 53.3009 72.5462 53.0396 72.9365C52.7782 73.3268 52.4308 73.6204 51.9976 73.8174C51.5679 74.0107 51.1006 74.1074 50.5957 74.1074C50.0658 74.1074 49.5859 74.0107 49.1562 73.8174C48.7301 73.6204 48.3918 73.3268 48.1411 72.9365C47.894 72.5462 47.7705 72.0575 47.7705 71.4702V66.1797H48.7964V71.4702C48.7964 71.8784 48.8716 72.215 49.022 72.48C49.1724 72.745 49.3818 72.9419 49.6504 73.0708C49.9225 73.1997 50.2376 73.2642 50.5957 73.2642C50.9574 73.2642 51.2725 73.1997 51.541 73.0708C51.8132 72.9419 52.0244 72.745 52.1748 72.48C52.3252 72.215 52.4004 71.8784 52.4004 71.4702V66.1797ZM55.0591 66.1797H57.6479C58.2352 66.1797 58.7311 66.2692 59.1357 66.4482C59.5439 66.6273 59.8537 66.8923 60.0649 67.2432C60.2798 67.5905 60.3872 68.0184 60.3872 68.5269C60.3872 68.8849 60.3138 69.2126 60.167 69.5098C60.0238 69.8034 59.8161 70.054 59.5439 70.2617C59.2754 70.4658 58.9531 70.618 58.5771 70.7183L58.2871 70.8311H55.854L55.8433 69.9878H57.6802C58.0526 69.9878 58.3623 69.9233 58.6094 69.7944C58.8564 69.6619 59.0426 69.4847 59.168 69.2627C59.2933 69.0407 59.356 68.7954 59.356 68.5269C59.356 68.2261 59.2969 67.9629 59.1787 67.7373C59.0605 67.5117 58.8743 67.3381 58.6201 67.2163C58.3695 67.091 58.0454 67.0283 57.6479 67.0283H56.0957V74H55.0591V66.1797ZM59.6299 74L57.7285 70.4551L58.8081 70.4497L60.7363 73.9355V74H59.6299ZM67.0903 72.813L69.3945 66.1797H70.5171L67.6221 74H66.8218L67.0903 72.813ZM64.9365 66.1797L67.2192 72.813L67.5039 74H66.7036L63.814 66.1797H64.9365ZM72.6816 66.1797V74H71.645V66.1797H72.6816ZM78.7349 72.0234C78.7349 71.8408 78.7062 71.6797 78.6489 71.54C78.5952 71.3968 78.4985 71.2679 78.3589 71.1533C78.2228 71.0387 78.033 70.9295 77.7896 70.8257C77.5496 70.7218 77.2453 70.6162 76.8765 70.5088C76.4897 70.3942 76.1406 70.2671 75.8291 70.1274C75.5176 69.9842 75.2508 69.8213 75.0288 69.6387C74.8068 69.4561 74.6367 69.2466 74.5186 69.0103C74.4004 68.7739 74.3413 68.5036 74.3413 68.1992C74.3413 67.8949 74.404 67.6138 74.5293 67.356C74.6546 67.0981 74.8337 66.8743 75.0664 66.6846C75.3027 66.4912 75.5838 66.3408 75.9097 66.2334C76.2355 66.126 76.599 66.0723 77 66.0723C77.5872 66.0723 78.085 66.1851 78.4932 66.4106C78.9049 66.6326 79.2183 66.9245 79.4331 67.2861C79.6479 67.6442 79.7554 68.0273 79.7554 68.4355H78.7241C78.7241 68.1419 78.6615 67.8823 78.5361 67.6567C78.4108 67.4276 78.221 67.2485 77.9668 67.1196C77.7126 66.9871 77.3903 66.9209 77 66.9209C76.6312 66.9209 76.3268 66.9764 76.0869 67.0874C75.847 67.1984 75.668 67.3488 75.5498 67.5386C75.4352 67.7284 75.3779 67.945 75.3779 68.1885C75.3779 68.3532 75.4119 68.5036 75.48 68.6396C75.5516 68.7721 75.6608 68.8957 75.8076 69.0103C75.958 69.1248 76.1478 69.2305 76.377 69.3271C76.6097 69.4238 76.8872 69.5169 77.2095 69.6064C77.6535 69.7318 78.0366 69.8714 78.3589 70.0254C78.6812 70.1794 78.9461 70.353 79.1538 70.5464C79.3651 70.7362 79.5208 70.9528 79.6211 71.1963C79.7249 71.4362 79.7769 71.7083 79.7769 72.0127C79.7769 72.3314 79.7124 72.6196 79.5835 72.8774C79.4546 73.1353 79.2702 73.3555 79.0303 73.5381C78.7904 73.7207 78.5021 73.8621 78.1655 73.9624C77.8325 74.0591 77.4601 74.1074 77.0483 74.1074C76.6867 74.1074 76.3304 74.0573 75.9795 73.957C75.6322 73.8568 75.3153 73.7064 75.0288 73.5059C74.7459 73.3053 74.5186 73.0583 74.3467 72.7646C74.1784 72.4674 74.0942 72.1237 74.0942 71.7334H75.1255C75.1255 72.002 75.1774 72.2329 75.2812 72.4263C75.3851 72.616 75.5265 72.7736 75.7056 72.8989C75.8882 73.0243 76.0941 73.1174 76.3232 73.1782C76.556 73.2355 76.7977 73.2642 77.0483 73.2642C77.41 73.2642 77.7161 73.214 77.9668 73.1138C78.2174 73.0135 78.4072 72.8703 78.5361 72.6841C78.6686 72.4979 78.7349 72.2777 78.7349 72.0234ZM82.21 66.1797V74H81.1733V66.1797H82.21ZM90.1162 69.8428V70.3369C90.1162 70.9242 90.0428 71.4505 89.896 71.916C89.7492 72.3815 89.5379 72.7772 89.2622 73.103C88.9865 73.4289 88.6553 73.6777 88.2686 73.8496C87.8854 74.0215 87.4557 74.1074 86.9795 74.1074C86.5176 74.1074 86.0933 74.0215 85.7065 73.8496C85.3234 73.6777 84.9904 73.4289 84.7075 73.103C84.4282 72.7772 84.2116 72.3815 84.0576 71.916C83.9036 71.4505 83.8267 70.9242 83.8267 70.3369V69.8428C83.8267 69.2555 83.9019 68.731 84.0522 68.269C84.2062 67.8035 84.4229 67.4079 84.7021 67.082C84.9814 66.7526 85.3127 66.502 85.6958 66.3301C86.0825 66.1582 86.5068 66.0723 86.9688 66.0723C87.445 66.0723 87.8747 66.1582 88.2578 66.3301C88.6445 66.502 88.9757 66.7526 89.2515 67.082C89.5308 67.4079 89.7438 67.8035 89.8906 68.269C90.041 68.731 90.1162 69.2555 90.1162 69.8428ZM89.0903 70.3369V69.832C89.0903 69.3665 89.042 68.9548 88.9453 68.5967C88.8522 68.2386 88.7144 67.9378 88.5317 67.6943C88.3491 67.4508 88.1253 67.2664 87.8604 67.1411C87.599 67.0158 87.3018 66.9531 86.9688 66.9531C86.6465 66.9531 86.3547 67.0158 86.0933 67.1411C85.8354 67.2664 85.6134 67.4508 85.4272 67.6943C85.2446 67.9378 85.1032 68.2386 85.0029 68.5967C84.9027 68.9548 84.8525 69.3665 84.8525 69.832V70.3369C84.8525 70.806 84.9027 71.2214 85.0029 71.583C85.1032 71.9411 85.2464 72.2437 85.4326 72.4907C85.6224 72.7342 85.8462 72.9186 86.104 73.0439C86.3654 73.1693 86.6572 73.2319 86.9795 73.2319C87.3161 73.2319 87.6151 73.1693 87.8765 73.0439C88.1379 72.9186 88.3581 72.7342 88.5371 72.4907C88.7197 72.2437 88.8576 71.9411 88.9507 71.583C89.0438 71.2214 89.0903 70.806 89.0903 70.3369ZM97.6841 66.1797V74H96.6421L92.7051 67.9683V74H91.6685V66.1797H92.7051L96.6582 72.2275V66.1797H97.6841ZM108.271 69.8428V70.3369C108.271 70.9242 108.197 71.4505 108.05 71.916C107.903 72.3815 107.692 72.7772 107.417 73.103C107.141 73.4289 106.81 73.6777 106.423 73.8496C106.04 74.0215 105.61 74.1074 105.134 74.1074C104.672 74.1074 104.248 74.0215 103.861 73.8496C103.478 73.6777 103.145 73.4289 102.862 73.103C102.583 72.7772 102.366 72.3815 102.212 71.916C102.058 71.4505 101.981 70.9242 101.981 70.3369V69.8428C101.981 69.2555 102.056 68.731 102.207 68.269C102.361 67.8035 102.577 67.4079 102.856 67.082C103.136 66.7526 103.467 66.502 103.85 66.3301C104.237 66.1582 104.661 66.0723 105.123 66.0723C105.599 66.0723 106.029 66.1582 106.412 66.3301C106.799 66.502 107.13 66.7526 107.406 67.082C107.685 67.4079 107.898 67.8035 108.045 68.269C108.195 68.731 108.271 69.2555 108.271 69.8428ZM107.245 70.3369V69.832C107.245 69.3665 107.196 68.9548 107.1 68.5967C107.007 68.2386 106.869 67.9378 106.686 67.6943C106.503 67.4508 106.28 67.2664 106.015 67.1411C105.753 67.0158 105.456 66.9531 105.123 66.9531C104.801 66.9531 104.509 67.0158 104.248 67.1411C103.99 67.2664 103.768 67.4508 103.582 67.6943C103.399 67.9378 103.257 68.2386 103.157 68.5967C103.057 68.9548 103.007 69.3665 103.007 69.832V70.3369C103.007 70.806 103.057 71.2214 103.157 71.583C103.257 71.9411 103.401 72.2437 103.587 72.4907C103.777 72.7342 104 72.9186 104.258 73.0439C104.52 73.1693 104.812 73.2319 105.134 73.2319C105.47 73.2319 105.769 73.1693 106.031 73.0439C106.292 72.9186 106.512 72.7342 106.691 72.4907C106.874 72.2437 107.012 71.9411 107.105 71.583C107.198 71.2214 107.245 70.806 107.245 70.3369ZM114.297 66.1797H115.328V71.4702C115.328 72.0575 115.197 72.5462 114.936 72.9365C114.675 73.3268 114.327 73.6204 113.894 73.8174C113.464 74.0107 112.997 74.1074 112.492 74.1074C111.962 74.1074 111.482 74.0107 111.053 73.8174C110.627 73.6204 110.288 73.3268 110.038 72.9365C109.791 72.5462 109.667 72.0575 109.667 71.4702V66.1797H110.693V71.4702C110.693 71.8784 110.768 72.215 110.918 72.48C111.069 72.745 111.278 72.9419 111.547 73.0708C111.819 73.1997 112.134 73.2642 112.492 73.2642C112.854 73.2642 113.169 73.1997 113.438 73.0708C113.71 72.9419 113.921 72.745 114.071 72.48C114.222 72.215 114.297 71.8784 114.297 71.4702V66.1797ZM116.956 66.1797H119.544C120.132 66.1797 120.628 66.2692 121.032 66.4482C121.44 66.6273 121.75 66.8923 121.961 67.2432C122.176 67.5905 122.284 68.0184 122.284 68.5269C122.284 68.8849 122.21 69.2126 122.063 69.5098C121.92 69.8034 121.713 70.054 121.44 70.2617C121.172 70.4658 120.85 70.618 120.474 70.7183L120.184 70.8311H117.75L117.74 69.9878H119.577C119.949 69.9878 120.259 69.9233 120.506 69.7944C120.753 69.6619 120.939 69.4847 121.064 69.2627C121.19 69.0407 121.252 68.7954 121.252 68.5269C121.252 68.2261 121.193 67.9629 121.075 67.7373C120.957 67.5117 120.771 67.3381 120.517 67.2163C120.266 67.091 119.942 67.0283 119.544 67.0283H117.992V74H116.956V66.1797ZM121.526 74L119.625 70.4551L120.705 70.4497L122.633 73.9355V74H121.526ZM129.347 70.9331H127.257V70.0898H129.347C129.751 70.0898 130.079 70.0254 130.33 69.8965C130.58 69.7676 130.763 69.5885 130.877 69.3594C130.996 69.1302 131.055 68.8688 131.055 68.5752C131.055 68.3066 130.996 68.0542 130.877 67.8179C130.763 67.5815 130.58 67.3918 130.33 67.2485C130.079 67.1017 129.751 67.0283 129.347 67.0283H127.499V74H126.462V66.1797H129.347C129.938 66.1797 130.437 66.2817 130.845 66.4858C131.253 66.6899 131.563 66.9728 131.774 67.3345C131.986 67.6925 132.091 68.1025 132.091 68.5645C132.091 69.0658 131.986 69.4937 131.774 69.8481C131.563 70.2026 131.253 70.473 130.845 70.6592C130.437 70.8418 129.938 70.9331 129.347 70.9331ZM133.402 66.1797H135.991C136.578 66.1797 137.074 66.2692 137.479 66.4482C137.887 66.6273 138.196 66.8923 138.408 67.2432C138.623 67.5905 138.73 68.0184 138.73 68.5269C138.73 68.8849 138.657 69.2126 138.51 69.5098C138.367 69.8034 138.159 70.054 137.887 70.2617C137.618 70.4658 137.296 70.618 136.92 70.7183L136.63 70.8311H134.197L134.186 69.9878H136.023C136.395 69.9878 136.705 69.9233 136.952 69.7944C137.199 69.6619 137.385 69.4847 137.511 69.2627C137.636 69.0407 137.699 68.7954 137.699 68.5269C137.699 68.2261 137.64 67.9629 137.521 67.7373C137.403 67.5117 137.217 67.3381 136.963 67.2163C136.712 67.091 136.388 67.0283 135.991 67.0283H134.438V74H133.402V66.1797ZM137.973 74L136.071 70.4551L137.151 70.4497L139.079 73.9355V74H137.973ZM141.292 66.1797V74H140.255V66.1797H141.292ZM149.198 69.8428V70.3369C149.198 70.9242 149.125 71.4505 148.978 71.916C148.831 72.3815 148.62 72.7772 148.344 73.103C148.069 73.4289 147.737 73.6777 147.351 73.8496C146.967 74.0215 146.538 74.1074 146.062 74.1074C145.6 74.1074 145.175 74.0215 144.789 73.8496C144.405 73.6777 144.072 73.4289 143.79 73.103C143.51 72.7772 143.294 72.3815 143.14 71.916C142.986 71.4505 142.909 70.9242 142.909 70.3369V69.8428C142.909 69.2555 142.984 68.731 143.134 68.269C143.288 67.8035 143.505 67.4079 143.784 67.082C144.063 66.7526 144.395 66.502 144.778 66.3301C145.165 66.1582 145.589 66.0723 146.051 66.0723C146.527 66.0723 146.957 66.1582 147.34 66.3301C147.727 66.502 148.058 66.7526 148.333 67.082C148.613 67.4079 148.826 67.8035 148.973 68.269C149.123 68.731 149.198 69.2555 149.198 69.8428ZM148.172 70.3369V69.832C148.172 69.3665 148.124 68.9548 148.027 68.5967C147.934 68.2386 147.796 67.9378 147.614 67.6943C147.431 67.4508 147.207 67.2664 146.942 67.1411C146.681 67.0158 146.384 66.9531 146.051 66.9531C145.729 66.9531 145.437 67.0158 145.175 67.1411C144.917 67.2664 144.695 67.4508 144.509 67.6943C144.327 67.9378 144.185 68.2386 144.085 68.5967C143.985 68.9548 143.935 69.3665 143.935 69.832V70.3369C143.935 70.806 143.985 71.2214 144.085 71.583C144.185 71.9411 144.328 72.2437 144.515 72.4907C144.704 72.7342 144.928 72.9186 145.186 73.0439C145.447 73.1693 145.739 73.2319 146.062 73.2319C146.398 73.2319 146.697 73.1693 146.958 73.0439C147.22 72.9186 147.44 72.7342 147.619 72.4907C147.802 72.2437 147.94 71.9411 148.033 71.583C148.126 71.2214 148.172 70.806 148.172 70.3369ZM150.75 66.1797H153.339C153.927 66.1797 154.423 66.2692 154.827 66.4482C155.235 66.6273 155.545 66.8923 155.756 67.2432C155.971 67.5905 156.079 68.0184 156.079 68.5269C156.079 68.8849 156.005 69.2126 155.858 69.5098C155.715 69.8034 155.507 70.054 155.235 70.2617C154.967 70.4658 154.645 70.618 154.269 70.7183L153.979 70.8311H151.545L151.535 69.9878H153.372C153.744 69.9878 154.054 69.9233 154.301 69.7944C154.548 69.6619 154.734 69.4847 154.859 69.2627C154.985 69.0407 155.047 68.7954 155.047 68.5269C155.047 68.2261 154.988 67.9629 154.87 67.7373C154.752 67.5117 154.566 67.3381 154.312 67.2163C154.061 67.091 153.737 67.0283 153.339 67.0283H151.787V74H150.75V66.1797ZM155.321 74L153.42 70.4551L154.5 70.4497L156.428 73.9355V74H155.321ZM158.641 66.1797V74H157.604V66.1797H158.641ZM163.254 66.1797V74H162.234V66.1797H163.254ZM165.768 66.1797V67.0283H159.726V66.1797H165.768ZM167.374 66.1797L169.404 70.106L171.44 66.1797H172.616L169.92 71.0781V74H168.883V71.0781L166.187 66.1797H167.374Z" fill="white"/>
<path d="M32.5865 18.6045C32.9971 17.4378 34.0816 16.6426 35.3178 16.602L43.9892 16.3168C45.3936 16.2706 46.4065 17.649 45.943 18.9754L32.8872 56.3416C32.3422 57.9015 30.894 58.9657 29.2425 59.02L19.6987 59.3339C18.9956 59.357 18.489 58.6661 18.7225 58.0025L32.5865 18.6045Z" fill="#F13911"/>
<path d="M4.3912 20.9881C3.71097 19.0381 5.15857 17 7.2238 17H14.0537C14.9447 17 15.7282 17.5894 15.9753 18.4455L20.832 35.275C20.9415 35.6546 20.9362 36.0581 20.8167 36.4347L15.5581 53L4.3912 20.9881Z" fill="#F13911"/>
<path d="M22.0312 46.9238L25.5469 34.1504H29.9561L24.6094 50H21.9434L22.0312 46.9238ZM19.6143 34.1504L23.1445 46.9385L23.2178 50H20.5371L15.1904 34.1504H19.6143ZM36.2988 34.1504V50H32.0654V34.1504H36.2988ZM31.8018 30.0195C31.8018 29.4043 32.0166 28.8965 32.4463 28.4961C32.876 28.0957 33.4521 27.8955 34.1748 27.8955C34.8877 27.8955 35.459 28.0957 35.8887 28.4961C36.3281 28.8965 36.5479 29.4043 36.5479 30.0195C36.5479 30.6348 36.3281 31.1426 35.8887 31.543C35.459 31.9434 34.8877 32.1436 34.1748 32.1436C33.4521 32.1436 32.876 31.9434 32.4463 31.543C32.0166 31.1426 31.8018 30.6348 31.8018 30.0195ZM48.3545 45.6201C48.3545 45.3174 48.2666 45.0439 48.0908 44.7998C47.915 44.5557 47.5879 44.3311 47.1094 44.126C46.6406 43.9111 45.9619 43.7158 45.0732 43.54C44.2725 43.3643 43.5254 43.1445 42.832 42.8809C42.1484 42.6074 41.5527 42.2803 41.0449 41.8994C40.5469 41.5186 40.1562 41.0693 39.873 40.5518C39.5898 40.0244 39.4482 39.4238 39.4482 38.75C39.4482 38.0859 39.5898 37.4609 39.873 36.875C40.166 36.2891 40.5811 35.7715 41.1182 35.3223C41.665 34.8633 42.3291 34.5068 43.1104 34.2529C43.9014 33.9893 44.79 33.8574 45.7764 33.8574C47.1533 33.8574 48.335 34.0771 49.3213 34.5166C50.3174 34.9561 51.0791 35.5615 51.6064 36.333C52.1436 37.0947 52.4121 37.9639 52.4121 38.9404H48.1934C48.1934 38.5303 48.1055 38.1641 47.9297 37.8418C47.7637 37.5098 47.5 37.251 47.1387 37.0654C46.7871 36.8701 46.3281 36.7725 45.7617 36.7725C45.293 36.7725 44.8877 36.8555 44.5459 37.0215C44.2041 37.1777 43.9404 37.3926 43.7549 37.666C43.5791 37.9297 43.4912 38.2227 43.4912 38.5449C43.4912 38.7891 43.54 39.0088 43.6377 39.2041C43.7451 39.3896 43.916 39.5605 44.1504 39.7168C44.3848 39.873 44.6875 40.0195 45.0586 40.1562C45.4395 40.2832 45.9082 40.4004 46.4648 40.5078C47.6074 40.7422 48.6279 41.0498 49.5264 41.4307C50.4248 41.8018 51.1377 42.3096 51.665 42.9541C52.1924 43.5889 52.4561 44.4238 52.4561 45.459C52.4561 46.1621 52.2998 46.8066 51.9873 47.3926C51.6748 47.9785 51.2256 48.4912 50.6396 48.9307C50.0537 49.3604 49.3506 49.6973 48.5303 49.9414C47.7197 50.1758 46.8066 50.293 45.791 50.293C44.3164 50.293 43.0664 50.0293 42.041 49.502C41.0254 48.9746 40.2539 48.3057 39.7266 47.4951C39.209 46.6748 38.9502 45.835 38.9502 44.9756H42.9492C42.9688 45.5518 43.1152 46.0156 43.3887 46.3672C43.6719 46.7188 44.0283 46.9727 44.458 47.1289C44.8975 47.2852 45.3711 47.3633 45.8789 47.3633C46.4258 47.3633 46.8799 47.29 47.2412 47.1436C47.6025 46.9873 47.876 46.7822 48.0615 46.5283C48.2568 46.2646 48.3545 45.9619 48.3545 45.6201ZM63.75 46.4258V39.3652C63.75 38.8574 63.667 38.4229 63.501 38.0615C63.335 37.6904 63.0762 37.4023 62.7246 37.1973C62.3828 36.9922 61.9385 36.8896 61.3916 36.8896C60.9229 36.8896 60.5176 36.9727 60.1758 37.1387C59.834 37.2949 59.5703 37.5244 59.3848 37.8271C59.1992 38.1201 59.1064 38.4668 59.1064 38.8672H54.8877C54.8877 38.1934 55.0439 37.5537 55.3564 36.9482C55.6689 36.3428 56.123 35.8105 56.7188 35.3516C57.3145 34.8828 58.0225 34.5166 58.8428 34.2529C59.6729 33.9893 60.6006 33.8574 61.626 33.8574C62.8564 33.8574 63.9502 34.0625 64.9072 34.4727C65.8643 34.8828 66.6162 35.498 67.1631 36.3184C67.7197 37.1387 67.998 38.1641 67.998 39.3945V46.1768C67.998 47.0459 68.0518 47.7588 68.1592 48.3154C68.2666 48.8623 68.4229 49.3408 68.6279 49.751V50H64.3652C64.1602 49.5703 64.0039 49.0332 63.8965 48.3887C63.7988 47.7344 63.75 47.0801 63.75 46.4258ZM64.3066 40.3467L64.3359 42.7344H61.9775C61.4209 42.7344 60.9375 42.7979 60.5273 42.9248C60.1172 43.0518 59.7803 43.2324 59.5166 43.4668C59.2529 43.6914 59.0576 43.9551 58.9307 44.2578C58.8135 44.5605 58.7549 44.8926 58.7549 45.2539C58.7549 45.6152 58.8379 45.9424 59.0039 46.2354C59.1699 46.5186 59.4092 46.7432 59.7217 46.9092C60.0342 47.0654 60.4004 47.1436 60.8203 47.1436C61.4551 47.1436 62.0068 47.0166 62.4756 46.7627C62.9443 46.5088 63.3057 46.1963 63.5596 45.8252C63.8232 45.4541 63.96 45.1025 63.9697 44.7705L65.083 46.5576C64.9268 46.958 64.7119 47.373 64.4385 47.8027C64.1748 48.2324 63.8379 48.6377 63.4277 49.0186C63.0176 49.3896 62.5244 49.6973 61.9482 49.9414C61.3721 50.1758 60.6885 50.293 59.8975 50.293C58.8916 50.293 57.9785 50.0928 57.1582 49.6924C56.3477 49.2822 55.7031 48.7207 55.2246 48.0078C54.7559 47.2852 54.5215 46.4648 54.5215 45.5469C54.5215 44.7168 54.6777 43.9795 54.9902 43.335C55.3027 42.6904 55.7617 42.1484 56.3672 41.709C56.9824 41.2598 57.749 40.9229 58.667 40.6982C59.585 40.4639 60.6494 40.3467 61.8604 40.3467H64.3066ZM79.0137 34.1504V37.1387H69.7852V34.1504H79.0137ZM72.0703 30.2393H76.2891V45.2246C76.2891 45.6836 76.3477 46.0352 76.4648 46.2793C76.5918 46.5234 76.7773 46.6943 77.0215 46.792C77.2656 46.8799 77.5732 46.9238 77.9443 46.9238C78.208 46.9238 78.4424 46.9141 78.6475 46.8945C78.8623 46.8652 79.043 46.8359 79.1895 46.8066L79.2041 49.9121C78.8428 50.0293 78.4521 50.1221 78.0322 50.1904C77.6123 50.2588 77.1484 50.293 76.6406 50.293C75.7129 50.293 74.9023 50.1416 74.209 49.8389C73.5254 49.5264 72.998 49.0283 72.627 48.3447C72.2559 47.6611 72.0703 46.7627 72.0703 45.6494V30.2393ZM80.3613 42.2363V41.9287C80.3613 40.7666 80.5273 39.6973 80.8594 38.7207C81.1914 37.7344 81.6748 36.8799 82.3096 36.1572C82.9443 35.4346 83.7256 34.873 84.6533 34.4727C85.5811 34.0625 86.6455 33.8574 87.8467 33.8574C89.0479 33.8574 90.1172 34.0625 91.0547 34.4727C91.9922 34.873 92.7783 35.4346 93.4131 36.1572C94.0576 36.8799 94.5459 37.7344 94.8779 38.7207C95.21 39.6973 95.376 40.7666 95.376 41.9287V42.2363C95.376 43.3887 95.21 44.458 94.8779 45.4443C94.5459 46.4209 94.0576 47.2754 93.4131 48.0078C92.7783 48.7305 91.9971 49.292 91.0693 49.6924C90.1416 50.0928 89.0771 50.293 87.876 50.293C86.6748 50.293 85.6055 50.0928 84.668 49.6924C83.7402 49.292 82.9541 48.7305 82.3096 48.0078C81.6748 47.2754 81.1914 46.4209 80.8594 45.4443C80.5273 44.458 80.3613 43.3887 80.3613 42.2363ZM84.5801 41.9287V42.2363C84.5801 42.9004 84.6387 43.5205 84.7559 44.0967C84.873 44.6729 85.0586 45.1807 85.3125 45.6201C85.5762 46.0498 85.918 46.3867 86.3379 46.6309C86.7578 46.875 87.2705 46.9971 87.876 46.9971C88.4619 46.9971 88.9648 46.875 89.3848 46.6309C89.8047 46.3867 90.1416 46.0498 90.3955 45.6201C90.6494 45.1807 90.835 44.6729 90.9521 44.0967C91.0791 43.5205 91.1426 42.9004 91.1426 42.2363V41.9287C91.1426 41.2842 91.0791 40.6787 90.9521 40.1123C90.835 39.5361 90.6445 39.0283 90.3809 38.5889C90.127 38.1396 89.79 37.7881 89.3701 37.5342C88.9502 37.2803 88.4424 37.1533 87.8467 37.1533C87.251 37.1533 86.7432 37.2803 86.3232 37.5342C85.9131 37.7881 85.5762 38.1396 85.3125 38.5889C85.0586 39.0283 84.873 39.5361 84.7559 40.1123C84.6387 40.6787 84.5801 41.2842 84.5801 41.9287ZM102.188 37.6074V50H97.9688V34.1504H101.938L102.188 37.6074ZM106.963 34.0479L106.89 37.959C106.685 37.9297 106.436 37.9053 106.143 37.8857C105.859 37.8564 105.601 37.8418 105.366 37.8418C104.771 37.8418 104.253 37.9199 103.813 38.0762C103.384 38.2227 103.022 38.4424 102.729 38.7354C102.446 39.0283 102.231 39.3848 102.085 39.8047C101.948 40.2246 101.87 40.7031 101.851 41.2402L101.001 40.9766C101.001 39.9512 101.104 39.0088 101.309 38.1494C101.514 37.2803 101.812 36.5234 102.202 35.8789C102.603 35.2344 103.091 34.7363 103.667 34.3848C104.243 34.0332 104.902 33.8574 105.645 33.8574C105.879 33.8574 106.118 33.877 106.362 33.916C106.606 33.9453 106.807 33.9893 106.963 34.0479ZM120.645 37.6074V50H116.426V34.1504H120.396L120.645 37.6074ZM125.42 34.0479L125.347 37.959C125.142 37.9297 124.893 37.9053 124.6 37.8857C124.316 37.8564 124.058 37.8418 123.823 37.8418C123.228 37.8418 122.71 37.9199 122.271 38.0762C121.841 38.2227 121.479 38.4424 121.187 38.7354C120.903 39.0283 120.688 39.3848 120.542 39.8047C120.405 40.2246 120.327 40.7031 120.308 41.2402L119.458 40.9766C119.458 39.9512 119.561 39.0088 119.766 38.1494C119.971 37.2803 120.269 36.5234 120.659 35.8789C121.06 35.2344 121.548 34.7363 122.124 34.3848C122.7 34.0332 123.359 33.8574 124.102 33.8574C124.336 33.8574 124.575 33.877 124.819 33.916C125.063 33.9453 125.264 33.9893 125.42 34.0479ZM134.414 50.293C133.184 50.293 132.08 50.0977 131.104 49.707C130.127 49.3066 129.297 48.7549 128.613 48.0518C127.939 47.3486 127.422 46.5332 127.061 45.6055C126.699 44.668 126.519 43.6719 126.519 42.6172V42.0312C126.519 40.8301 126.689 39.7314 127.031 38.7354C127.373 37.7393 127.861 36.875 128.496 36.1426C129.141 35.4102 129.922 34.8486 130.84 34.458C131.758 34.0576 132.793 33.8574 133.945 33.8574C135.068 33.8574 136.064 34.043 136.934 34.4141C137.803 34.7852 138.53 35.3125 139.116 35.9961C139.712 36.6797 140.161 37.5 140.464 38.457C140.767 39.4043 140.918 40.459 140.918 41.6211V43.3789H128.32V40.5664H136.772V40.2441C136.772 39.6582 136.665 39.1357 136.45 38.6768C136.245 38.208 135.933 37.8369 135.513 37.5635C135.093 37.29 134.556 37.1533 133.901 37.1533C133.345 37.1533 132.866 37.2754 132.466 37.5195C132.065 37.7637 131.738 38.1055 131.484 38.5449C131.24 38.9844 131.055 39.502 130.928 40.0977C130.811 40.6836 130.752 41.3281 130.752 42.0312V42.6172C130.752 43.252 130.84 43.8379 131.016 44.375C131.201 44.9121 131.46 45.376 131.792 45.7666C132.134 46.1572 132.544 46.46 133.022 46.6748C133.511 46.8896 134.062 46.9971 134.678 46.9971C135.439 46.9971 136.147 46.8506 136.802 46.5576C137.466 46.2549 138.037 45.8008 138.516 45.1953L140.566 47.4219C140.234 47.9004 139.78 48.3594 139.204 48.7988C138.638 49.2383 137.954 49.5996 137.153 49.8828C136.353 50.1562 135.439 50.293 134.414 50.293ZM151.875 46.4258V39.3652C151.875 38.8574 151.792 38.4229 151.626 38.0615C151.46 37.6904 151.201 37.4023 150.85 37.1973C150.508 36.9922 150.063 36.8896 149.517 36.8896C149.048 36.8896 148.643 36.9727 148.301 37.1387C147.959 37.2949 147.695 37.5244 147.51 37.8271C147.324 38.1201 147.231 38.4668 147.231 38.8672H143.013C143.013 38.1934 143.169 37.5537 143.481 36.9482C143.794 36.3428 144.248 35.8105 144.844 35.3516C145.439 34.8828 146.147 34.5166 146.968 34.2529C147.798 33.9893 148.726 33.8574 149.751 33.8574C150.981 33.8574 152.075 34.0625 153.032 34.4727C153.989 34.8828 154.741 35.498 155.288 36.3184C155.845 37.1387 156.123 38.1641 156.123 39.3945V46.1768C156.123 47.0459 156.177 47.7588 156.284 48.3154C156.392 48.8623 156.548 49.3408 156.753 49.751V50H152.49C152.285 49.5703 152.129 49.0332 152.021 48.3887C151.924 47.7344 151.875 47.0801 151.875 46.4258ZM152.432 40.3467L152.461 42.7344H150.103C149.546 42.7344 149.062 42.7979 148.652 42.9248C148.242 43.0518 147.905 43.2324 147.642 43.4668C147.378 43.6914 147.183 43.9551 147.056 44.2578C146.938 44.5605 146.88 44.8926 146.88 45.2539C146.88 45.6152 146.963 45.9424 147.129 46.2354C147.295 46.5186 147.534 46.7432 147.847 46.9092C148.159 47.0654 148.525 47.1436 148.945 47.1436C149.58 47.1436 150.132 47.0166 150.601 46.7627C151.069 46.5088 151.431 46.1963 151.685 45.8252C151.948 45.4541 152.085 45.1025 152.095 44.7705L153.208 46.5576C153.052 46.958 152.837 47.373 152.563 47.8027C152.3 48.2324 151.963 48.6377 151.553 49.0186C151.143 49.3896 150.649 49.6973 150.073 49.9414C149.497 50.1758 148.813 50.293 148.022 50.293C147.017 50.293 146.104 50.0928 145.283 49.6924C144.473 49.2822 143.828 48.7207 143.35 48.0078C142.881 47.2852 142.646 46.4648 142.646 45.5469C142.646 44.7168 142.803 43.9795 143.115 43.335C143.428 42.6904 143.887 42.1484 144.492 41.709C145.107 41.2598 145.874 40.9229 146.792 40.6982C147.71 40.4639 148.774 40.3467 149.985 40.3467H152.432ZM163.828 27.5V50H159.595V27.5H163.828ZM175.078 34.1504V37.1387H165.85V34.1504H175.078ZM168.135 30.2393H172.354V45.2246C172.354 45.6836 172.412 46.0352 172.529 46.2793C172.656 46.5234 172.842 46.6943 173.086 46.792C173.33 46.8799 173.638 46.9238 174.009 46.9238C174.272 46.9238 174.507 46.9141 174.712 46.8945C174.927 46.8652 175.107 46.8359 175.254 46.8066L175.269 49.9121C174.907 50.0293 174.517 50.1221 174.097 50.1904C173.677 50.2588 173.213 50.293 172.705 50.293C171.777 50.293 170.967 50.1416 170.273 49.8389C169.59 49.5264 169.062 49.0283 168.691 48.3447C168.32 47.6611 168.135 46.7627 168.135 45.6494V30.2393ZM182.183 48.2129L186.387 34.1504H190.913L184.541 52.3877C184.404 52.7881 184.219 53.2178 183.984 53.6768C183.76 54.1357 183.452 54.5703 183.062 54.9805C182.681 55.4004 182.197 55.7422 181.611 56.0059C181.035 56.2695 180.327 56.4014 179.487 56.4014C179.087 56.4014 178.76 56.377 178.506 56.3281C178.252 56.2793 177.949 56.2109 177.598 56.123V53.0322C177.705 53.0322 177.817 53.0322 177.935 53.0322C178.052 53.042 178.164 53.0469 178.271 53.0469C178.828 53.0469 179.282 52.9834 179.634 52.8564C179.985 52.7295 180.269 52.5342 180.483 52.2705C180.698 52.0166 180.869 51.6846 180.996 51.2744L182.183 48.2129ZM180.425 34.1504L183.867 45.6348L184.468 50.1025L181.597 50.4102L175.898 34.1504H180.425Z" fill="white"/>
</svg>
