<svg width="80" height="81" viewBox="0 0 80 81" fill="none" xmlns="http://www.w3.org/2000/svg">
<path d="M44.3829 26.5345L44.8495 28.626L46.6549 27.4717L63.4971 16.7033L52.8429 33.7862L51.7286 35.5728L53.7812 36.0423L73.2721 40.5L53.7812 44.9577L51.7286 45.4272L52.8429 47.2138L63.4971 64.2967L46.6549 53.5283L44.8495 52.374L44.3829 54.4655L40 74.1111L35.6171 54.4655L35.1505 52.374L33.3451 53.5283L16.5029 64.2967L27.1571 47.2138L28.2714 45.4272L26.2188 44.9577L6.72793 40.5L26.2188 36.0423L28.2714 35.5728L27.1571 33.7862L16.5029 16.7033L33.3451 27.4717L35.1505 28.626L35.6171 26.5345L40 6.88885L44.3829 26.5345Z" stroke="#FFC451" stroke-width="3"/>
</svg>
